<svg xmlns="http://www.w3.org/2000/svg" viewBox="0 0 307.91 54.76"><defs><style>.cls-1{fill:#51ac32;}.cls-2{fill:#ae1b24;}.cls-3{fill:#3c3c3b;}.cls-4{fill:#ffcb1b;}.cls-5{fill:#2bade4;}</style></defs><g id="Livello_2" data-name="Livello 2"><g id="Livello_1-2" data-name="Livello 1"><g id="quisviluppo"><g id="Q"><path id="verde" class="cls-1" d="M8.21,21.86a11.55,11.55,0,0,1,3.39-7.59l.41-.41a19.81,19.81,0,0,1,24.37-2.21A20,20,0,0,0,23.86,3.08,19.79,19.79,0,0,0,8.21,21.86Z"/><path id="rosso" class="cls-2" d="M27.56,31.05a11.63,11.63,0,0,1-7.8,3h-.62A19.82,19.82,0,0,1,.36,18.37,25.45,25.45,0,0,0,0,22.48,19.33,19.33,0,0,0,3.23,33.25,19.77,19.77,0,0,0,27.56,31.05Z"/><path id="grigio" class="cls-3" d="M19.19,34a11.6,11.6,0,0,1-11-11.59v-.62A19.84,19.84,0,0,1,23.86,3a21.11,21.11,0,0,0-4.1-.41A19.9,19.9,0,0,0,.41,18.37,19.72,19.72,0,0,0,19.19,34Z"/><path id="giallo" class="cls-4" d="M36.33,11.65A19.82,19.82,0,0,0,12,13.86a11.57,11.57,0,0,1,7.8-3h.61A19.85,19.85,0,0,1,39.16,26.53a21.92,21.92,0,0,0,.41-4.1A19.51,19.51,0,0,0,36.33,11.65Z"/><path id="blu" class="cls-5" d="M31.36,23A11.62,11.62,0,0,1,28,30.64h0l-.41.41a19.84,19.84,0,0,1-24.38,2.2,20,20,0,0,0,12.47,8.57A19.73,19.73,0,0,0,31.36,23Z"/><path id="grigioq" class="cls-3" d="M39.57,42.23l-2.67-9.9a19,19,0,0,0,2.2-5.8A19.74,19.74,0,0,0,20.32,10.88a11.61,11.61,0,0,1,11,11.6v.61A19.83,19.83,0,0,1,15.65,41.88a22,22,0,0,0,4.11.41,19.74,19.74,0,0,0,9.9-2.67Z"/></g><path id="u" class="cls-3" d="M53.58,16.06V30A5.36,5.36,0,0,0,55,34.13a4.82,4.82,0,0,0,3.39,1.18,5.06,5.06,0,0,0,3.44-1.18A5.58,5.58,0,0,0,63.22,30v-14h8.16V30.84c0,2.88-.3,5.65-2.82,8.11-2.87,2.82-7.13,3.28-10.16,3.28S51.06,41.77,48.19,39c-2.31-2.26-2.77-4.82-2.77-7.59V16.06Z"/><path id="i" class="cls-3" d="M82.42.51a4.74,4.74,0,0,1,4.77,4.78,4.78,4.78,0,0,1-9.55,0A4.74,4.74,0,0,1,82.42.51Zm4.1,15.55V41.41H78.36V16.06Z"/><path id="s" class="cls-3" d="M109,22.53a9.38,9.38,0,0,0-4.47-1.44,3.4,3.4,0,0,0-2.31.72,1.69,1.69,0,0,0-.51,1.13,1.35,1.35,0,0,0,.77,1.13,14.6,14.6,0,0,0,2.46.87l2.16.67a11.1,11.1,0,0,1,4.21,2.2,6,6,0,0,1,2,4.83,9.18,9.18,0,0,1-2.62,6.62c-2.51,2.51-5.54,2.87-8.21,2.87a14.91,14.91,0,0,1-10.37-3.64L95.5,33a16.08,16.08,0,0,0,2.77,1.9,7.62,7.62,0,0,0,3.39.77,4.66,4.66,0,0,0,2.57-.57,2.19,2.19,0,0,0,.87-1.64,1.66,1.66,0,0,0-.92-1.49,10.33,10.33,0,0,0-2.52-.92l-2-.62a10.13,10.13,0,0,1-4.11-2.31,6.26,6.26,0,0,1-1.79-4.62,7.83,7.83,0,0,1,2.46-5.85,11.15,11.15,0,0,1,7.65-2.56,16.17,16.17,0,0,1,8.41,2.15Z"/><path id="v" class="cls-3" d="M123.37,16.06l6.41,13.55,6.42-13.55h9L132.35,41.41h-5.13L114.39,16.06Z"/><path id="i-2" data-name="i" class="cls-3" d="M153.13.51a4.73,4.73,0,0,1,4.77,4.78,4.77,4.77,0,0,1-9.54,0A4.73,4.73,0,0,1,153.13.51Zm4.11,15.55V41.41h-8.16V16.06Z"/><path id="l" class="cls-3" d="M172.53,0V41.41h-8.16V0Z"/><path id="u-2" data-name="u" class="cls-3" d="M187.31,16.06V30a5.34,5.34,0,0,0,1.44,4.11,4.79,4.79,0,0,0,3.38,1.18,5.06,5.06,0,0,0,3.44-1.18A5.59,5.59,0,0,0,197,30v-14h8.16V30.84c0,2.88-.31,5.65-2.83,8.11-2.87,2.82-7.13,3.28-10.16,3.28s-7.33-.46-10.21-3.28c-2.31-2.26-2.77-4.82-2.77-7.59V16.06Z"/><path id="p" class="cls-3" d="M219.69,54.4h-8.16V16.06h8.16v3a9.37,9.37,0,0,1,7.9-3.85,12.28,12.28,0,0,1,9,3.59,14,14,0,0,1,3.79,9.91,13.77,13.77,0,0,1-4.05,10.16,11.25,11.25,0,0,1-8.57,3.39c-5,0-7.24-2.57-8.06-3.75V54.4ZM221,24.12a6.85,6.85,0,0,0-1.95,4.67,6.49,6.49,0,0,0,1.79,4.46,6.7,6.7,0,0,0,4.67,2,6.43,6.43,0,0,0,4.36-1.74,7,7,0,0,0,2-4.82A6.2,6.2,0,0,0,230,24a6.42,6.42,0,0,0-4.42-1.75A6.5,6.5,0,0,0,221,24.12Z"/><path id="p-2" data-name="p" class="cls-3" d="M253.61,54.4h-8.16V16.06h8.16v3a9.39,9.39,0,0,1,7.91-3.85,12.26,12.26,0,0,1,9,3.59,14,14,0,0,1,3.79,9.91,13.77,13.77,0,0,1-4.05,10.16,11.23,11.23,0,0,1-8.57,3.39c-5,0-7.24-2.57-8.06-3.75V54.4ZM255,24.12a6.89,6.89,0,0,0-1.95,4.67,6.49,6.49,0,0,0,1.79,4.46,6.7,6.7,0,0,0,4.67,2,6.45,6.45,0,0,0,4.37-1.74,7,7,0,0,0,2-4.82A6.2,6.2,0,0,0,263.93,24a6.39,6.39,0,0,0-4.42-1.75A6.3,6.3,0,0,0,255,24.12Z"/><path id="o" class="cls-3" d="M304.11,38.18a17,17,0,0,1-22.17,0,13.63,13.63,0,0,1,0-18.88A15.7,15.7,0,0,1,293,15.19a15.49,15.49,0,0,1,11.09,4.11,13.63,13.63,0,0,1,0,18.88ZM288.46,24a6.45,6.45,0,0,0-1.9,4.77,6.42,6.42,0,0,0,1.9,4.77,6.29,6.29,0,0,0,4.67,1.8,6.25,6.25,0,0,0,6.41-6.57A6.41,6.41,0,0,0,297.69,24a6.26,6.26,0,0,0-4.61-1.8A6.08,6.08,0,0,0,288.46,24Z"/><path id="punto" class="cls-3" d="M269.37,51.27A1.75,1.75,0,1,1,267.62,53,1.69,1.69,0,0,1,269.37,51.27Z"/><path id="c" class="cls-3" d="M279.94,48.6a2.69,2.69,0,0,0-1.8-.67,2,2,0,0,0-1.54.62,2.24,2.24,0,0,0-.61,1.59,2.09,2.09,0,0,0,2.2,2.2,2.79,2.79,0,0,0,1.75-.66v2.46a4.08,4.08,0,0,1-2.16.51,4.48,4.48,0,0,1-3.28-1.28,4.32,4.32,0,0,1-1.34-3.23,4.67,4.67,0,0,1,1.39-3.34,4.52,4.52,0,0,1,3.23-1.18,5.59,5.59,0,0,1,2.16.46Z"/><path id="o-2" data-name="o" class="cls-3" d="M290.56,53.32a5.64,5.64,0,0,1-7.39,0,4.47,4.47,0,0,1-1.28-3.13,4.39,4.39,0,0,1,1.28-3.13,5.61,5.61,0,0,1,7.39,0,4.47,4.47,0,0,1,0,6.26Zm-5.23-4.72a2.12,2.12,0,0,0-.62,1.59,2.18,2.18,0,0,0,.62,1.59,2,2,0,0,0,1.54.62,2.21,2.21,0,1,0-1.54-3.8Z"/><path id="m" class="cls-3" d="M294.1,45.93h2.72v1a2.67,2.67,0,0,1,2.36-1.18,3.56,3.56,0,0,1,1.59.36,3,3,0,0,1,1,1.18,3,3,0,0,1,1.08-1.07,3.13,3.13,0,0,1,1.79-.47,3.51,3.51,0,0,1,2.36.77,3.33,3.33,0,0,1,.88,2.52V54.4h-2.72V50.14a2.81,2.81,0,0,0-.36-1.64,1.14,1.14,0,0,0-1-.47,1.38,1.38,0,0,0-1.08.52,2.77,2.77,0,0,0-.41,1.64V54.4h-2.72V50a2.27,2.27,0,0,0-.41-1.64,1.16,1.16,0,0,0-.92-.36,1.21,1.21,0,0,0-.92.36,2.55,2.55,0,0,0-.52,1.75V54.4h-2.72V45.93Z"/></g></g></g></svg>